<?xml version="1.0" standalone="no"?>
<!DOCTYPE svg PUBLIC "-//W3C//DTD SVG 20010904//EN"
 "http://www.w3.org/TR/2001/REC-SVG-20010904/DTD/svg10.dtd">
<svg version="1.0" xmlns="http://www.w3.org/2000/svg"
 width="991.000000pt" height="991.000000pt" viewBox="0 0 991.000000 991.000000"
 preserveAspectRatio="xMidYMid meet">
<metadata>
Created by potrace 1.11, written by Peter Selinger 2001-2013
</metadata>
<g transform="translate(0.000000,991.000000) scale(0.100000,-0.100000)"
fill="#000000" stroke="none">
<path d="M597 8926 c-43 -69 -107 -199 -101 -208 3 -4 2 -8 -3 -8 -4 0 -14
-15 -21 -32 -16 -38 -50 -128 -57 -148 -1 -3 -7 -18 -13 -33 -7 -16 -12 -34
-12 -41 0 -7 -3 -16 -7 -19 -12 -12 -43 -110 -37 -118 3 -5 1 -9 -4 -9 -6 0
-13 -12 -18 -27 -4 -16 -8 -30 -9 -33 -1 -3 -5 -18 -9 -35 -4 -16 -10 -37 -14
-45 -3 -8 -6 -19 -7 -25 0 -5 -3 -14 -7 -20 -5 -9 -47 -152 -53 -185 -2 -8 -4
-17 -5 -20 -1 -3 -2 -9 -1 -14 1 -4 -3 -14 -9 -21 -6 -7 -10 -17 -9 -21 1 -5
0 -16 -3 -24 -26 -70 -37 -223 -18 -235 6 -4 8 -10 5 -15 -3 -5 0 -14 7 -22 7
-7 28 -33 47 -58 19 -24 60 -70 90 -103 98 -105 135 -144 199 -215 77 -85 201
-210 236 -237 15 -11 39 -32 55 -47 16 -16 34 -28 40 -28 6 0 11 -7 11 -16 0
-8 4 -13 8 -10 5 3 19 -5 33 -17 69 -63 137 -117 148 -117 6 0 11 -4 11 -8 0
-5 18 -21 41 -38 22 -16 51 -39 64 -51 13 -13 27 -23 30 -23 6 0 23 -13 56
-42 10 -10 20 -17 22 -16 1 1 23 -12 50 -30 26 -18 52 -30 57 -27 5 3 7 0 4
-8 -3 -9 7 -19 28 -28 18 -7 38 -20 45 -29 7 -8 13 -11 13 -7 0 4 9 -1 20 -11
12 -11 41 -30 65 -42 24 -12 52 -30 62 -39 10 -9 32 -23 48 -31 17 -8 32 -18
35 -21 11 -12 178 -109 189 -109 6 0 11 -4 11 -9 0 -5 18 -17 40 -27 22 -10
40 -21 40 -26 0 -4 3 -8 8 -7 13 2 52 -13 52 -21 0 -7 52 -33 59 -30 2 1 7 -2
10 -7 3 -4 38 -24 76 -43 39 -19 72 -39 73 -43 2 -4 11 -2 19 4 11 10 13 10
11 -1 -2 -8 10 -18 27 -24 17 -6 32 -13 35 -16 3 -4 21 -12 40 -19 47 -18 76
-29 103 -41 12 -6 32 -12 45 -13 21 -1 29 -17 15 -31 -4 -3 -9 -17 -11 -29 -5
-33 -6 -35 -37 -132 -30 -95 -36 -117 -37 -125 0 -3 -5 -16 -10 -30 -6 -14
-12 -41 -15 -60 -6 -48 -11 -75 -13 -75 -12 0 -16 -413 -6 -520 15 -158 19
-181 27 -191 5 -6 6 -13 3 -17 -3 -3 -3 -15 1 -28 6 -17 9 -19 16 -8 6 9 9 10
9 2 0 -6 -4 -14 -10 -18 -5 -3 -6 -15 -1 -28 32 -82 46 -107 60 -107 9 -1 78
-2 153 -3 l137 -2 -19 33 c-23 38 -58 140 -67 192 -3 19 -7 42 -8 50 -2 8 -4
23 -4 33 -1 12 -5 16 -13 11 -10 -6 -10 -4 -3 7 9 12 11 34 5 49 -1 3 -4 70
-6 150 -2 80 -6 151 -9 158 -2 6 -1 12 3 12 4 0 7 15 8 33 1 64 19 187 34 246
5 19 7 38 5 42 -3 4 0 9 6 11 6 2 11 22 12 45 1 22 5 39 10 36 4 -2 7 -1 8 4
2 27 9 47 18 56 6 6 11 17 11 24 0 15 26 74 81 187 22 43 39 83 39 90 0 15
-59 48 -72 39 -6 -3 -8 -2 -5 4 6 10 -84 73 -104 73 -5 0 -9 3 -9 8 0 12 -61
42 -73 35 -7 -3 -9 -3 -5 2 7 7 -14 35 -26 35 -9 0 -131 83 -134 92 -2 5 -11
8 -20 8 -10 0 -23 9 -30 20 -7 11 -19 20 -27 20 -8 0 -15 4 -15 8 0 4 -12 15
-27 24 -16 9 -38 25 -50 35 -11 10 -40 33 -62 51 -23 19 -103 96 -178 172 -75
76 -141 136 -145 134 -5 -3 -7 -2 -6 3 2 4 -51 62 -116 128 -66 66 -119 122
-118 125 0 3 -19 27 -41 54 -23 26 -44 53 -46 59 -4 12 -28 41 -59 73 -13 13
-20 24 -17 24 6 0 -60 96 -75 110 -3 3 -11 17 -19 33 -8 15 -18 27 -23 27 -4
0 -8 6 -8 13 0 7 -8 22 -18 33 -10 10 -33 44 -51 74 -19 30 -36 57 -40 60 -4
3 -12 16 -19 30 -7 14 -24 43 -37 65 -14 22 -28 48 -32 58 -3 9 -9 17 -14 17
-5 0 -9 6 -9 14 0 7 -7 19 -15 26 -8 7 -13 16 -10 20 3 5 1 11 -4 14 -5 4 -24
34 -41 69 -95 186 -130 258 -130 267 0 5 -4 10 -10 10 -5 0 -10 7 -10 16 0 9
-8 33 -19 53 -20 39 -59 124 -71 156 -4 11 -15 36 -23 55 -9 19 -25 60 -37 90
-12 30 -27 69 -35 85 -25 59 -40 100 -37 108 1 4 -3 7 -8 7 -5 0 -9 3 -8 8 1
4 -4 20 -10 35 -7 16 -12 34 -12 42 0 8 -4 16 -9 20 -5 3 -15 22 -21 43 -12
39 -26 75 -41 104 -5 10 -9 25 -9 33 0 8 -5 15 -11 15 -5 0 -8 4 -4 9 3 5 2
12 -3 15 -4 2 -20 -15 -35 -38z m1488 -2776 c3 -5 1 -10 -4 -10 -6 0 -11 5
-11 10 0 6 2 10 4 10 3 0 8 -4 11 -10z m169 -78 c3 -5 -1 -9 -9 -9 -8 0 -12 4
-9 9 3 4 7 8 9 8 2 0 6 -4 9 -8z"/>
<path d="M9285 8948 c-4 -13 -13 -36 -20 -53 -7 -16 -25 -61 -40 -100 -14 -38
-30 -79 -35 -90 -5 -11 -20 -51 -35 -90 -15 -38 -35 -88 -44 -110 -17 -36 -34
-82 -36 -95 0 -3 -6 -14 -12 -25 -6 -11 -11 -22 -11 -25 0 -7 -22 -60 -33 -82
-5 -10 -9 -24 -9 -32 0 -7 -7 -19 -15 -26 -9 -7 -13 -15 -11 -17 7 -7 -138
-340 -153 -353 -3 -3 -18 -30 -34 -60 -34 -69 -58 -111 -74 -128 -7 -7 -13
-20 -13 -28 0 -8 -4 -14 -9 -14 -5 0 -13 -9 -16 -20 -3 -11 -12 -26 -18 -33
-18 -19 -77 -104 -77 -111 0 -3 -8 -14 -17 -25 -10 -10 -43 -53 -73 -96 -30
-42 -65 -89 -77 -103 -12 -14 -20 -29 -17 -34 3 -4 1 -8 -5 -8 -5 0 -30 -28
-56 -62 -25 -35 -52 -71 -60 -80 -7 -9 -18 -26 -24 -37 -6 -11 -25 -35 -41
-53 -17 -18 -30 -38 -30 -45 0 -7 -4 -13 -9 -13 -4 0 -21 -19 -37 -42 -16 -23
-37 -50 -46 -60 -10 -10 -18 -22 -18 -28 0 -5 -7 -10 -15 -10 -8 0 -15 -5 -15
-10 0 -11 -157 -167 -236 -235 -25 -22 -59 -51 -75 -65 -15 -14 -44 -38 -64
-55 -19 -16 -52 -45 -72 -62 -20 -18 -39 -33 -42 -33 -3 0 -22 -15 -42 -33
-57 -50 -79 -67 -79 -62 0 3 -11 -5 -24 -16 -14 -12 -34 -27 -44 -33 -11 -6
-58 -36 -104 -67 -45 -30 -105 -68 -133 -83 -52 -29 -155 -97 -155 -102 0 -2
16 -33 35 -71 19 -37 35 -71 35 -75 0 -4 11 -31 24 -60 14 -29 28 -66 31 -81
4 -15 10 -27 14 -27 4 0 8 -10 8 -22 1 -13 6 -32 12 -43 5 -11 13 -33 17 -50
4 -16 8 -34 10 -40 10 -40 36 -168 42 -205 9 -62 8 -294 -1 -355 -5 -27 -9
-59 -11 -70 -3 -22 -23 -116 -32 -155 -4 -14 -7 -40 -8 -57 0 -18 -4 -33 -8
-33 -4 0 -7 -8 -7 -17 0 -10 -1 -35 -2 -56 0 -21 2 -41 5 -45 4 -3 63 -7 131
-7 95 0 125 3 125 12 0 7 4 13 8 13 5 0 15 17 24 38 23 52 28 73 44 156 2 16
7 32 9 36 5 9 15 183 16 291 1 85 -9 270 -17 314 -3 17 -7 44 -9 60 -2 17 -6
41 -8 55 -3 14 -8 43 -11 65 -8 64 -48 209 -60 217 -6 4 -8 8 -4 8 5 0 -1 22
-11 50 l-19 50 23 12 c12 7 40 22 61 34 22 11 57 31 79 44 22 12 69 38 105 58
108 58 154 85 173 100 9 8 17 12 17 7 0 -4 6 -2 14 4 7 6 33 22 57 35 24 13
62 33 84 46 22 13 60 34 85 48 25 13 50 29 56 33 6 5 14 6 17 2 4 -3 7 -1 7 5
0 7 6 12 14 12 7 0 19 7 26 15 7 8 16 12 21 9 5 -3 9 -1 9 3 0 5 29 23 65 41
35 19 67 37 70 42 3 5 21 17 40 26 19 9 35 20 35 25 0 5 6 9 13 9 8 0 22 9 32
20 10 11 22 20 26 20 8 0 99 59 109 71 3 3 20 14 38 24 17 11 32 23 32 28 0 4
5 5 10 2 6 -3 10 -3 10 2 0 4 17 19 38 33 20 14 39 27 42 30 3 3 18 13 33 23
15 10 25 23 21 29 -4 7 -3 8 5 4 6 -4 18 -1 26 6 8 7 20 18 27 23 23 18 173
139 184 150 233 212 256 234 249 246 -4 5 -3 9 2 8 21 -4 32 3 38 22 4 11 9
18 12 16 2 -3 23 16 46 41 23 25 63 68 89 96 26 27 45 53 42 58 -3 4 2 8 10 8
9 0 16 3 16 8 0 7 26 37 124 142 23 25 42 47 43 50 1 3 8 20 16 39 8 19 13 44
11 55 -15 92 -46 220 -55 232 -5 6 -6 13 -4 16 3 3 1 17 -5 32 -5 15 -12 37
-14 49 -12 57 -41 143 -50 149 -6 4 -8 8 -4 8 4 0 2 15 -3 33 -6 17 -12 39
-14 47 -12 49 -92 266 -100 272 -5 4 -7 8 -3 8 7 0 -10 49 -45 130 -6 14 -11
27 -12 30 -2 7 -29 67 -55 125 -24 50 -99 175 -105 175 -2 0 -7 -10 -10 -22z
m166 -875 c13 -16 12 -17 -3 -4 -10 7 -18 15 -18 17 0 8 8 3 21 -13z"/>
<path d="M119 7403 c-1 -10 -2 -36 -4 -58 -1 -22 -5 -94 -9 -160 -4 -66 -9
-154 -12 -195 -3 -41 -7 -111 -9 -155 -2 -44 -4 -80 -5 -80 -1 0 -3 -31 -6
-70 l-4 -70 38 -25 c20 -13 44 -30 52 -37 28 -25 131 -93 140 -93 6 0 10 -4
10 -8 0 -5 17 -17 38 -28 20 -10 41 -25 45 -31 4 -7 13 -13 18 -13 6 0 38 -19
71 -42 34 -23 68 -41 74 -41 7 0 15 -6 18 -14 3 -7 12 -13 21 -13 8 0 15 -4
15 -10 0 -5 11 -12 25 -16 14 -3 25 -10 25 -14 0 -4 15 -13 33 -21 17 -7 34
-16 37 -19 3 -3 49 -31 102 -62 72 -41 99 -53 108 -44 8 8 10 7 6 -4 -4 -11
15 -25 67 -50 39 -19 74 -37 77 -40 20 -20 261 -131 271 -125 7 5 10 4 6 -2
-5 -8 101 -63 124 -63 5 0 9 -4 9 -10 0 -5 16 -12 35 -16 19 -3 35 -10 35 -15
0 -5 5 -9 11 -9 6 0 50 -16 97 -36 116 -48 191 -78 202 -80 3 0 18 -6 33 -12
15 -7 40 -15 55 -18 15 -4 32 -11 38 -15 6 -5 19 -10 30 -12 10 -2 42 -11 69
-20 77 -26 218 -63 239 -62 10 0 20 7 21 15 8 50 27 139 39 185 21 82 21 80
-26 95 -23 8 -71 27 -105 42 -35 16 -64 27 -65 26 -2 -2 -17 7 -34 19 -17 12
-33 20 -36 17 -3 -2 -11 2 -18 11 -7 8 -21 15 -31 15 -11 0 -19 3 -19 8 0 8
-55 34 -66 32 -4 -1 -10 2 -13 7 -9 13 -71 55 -71 48 0 -3 -15 5 -33 19 -19
15 -39 26 -45 26 -7 0 -12 5 -12 10 0 6 -5 10 -10 10 -6 0 -37 17 -68 38 -31
20 -70 43 -85 51 -15 8 -27 18 -27 23 0 4 -5 8 -10 8 -12 0 -218 132 -241 155
-9 8 -19 15 -22 15 -6 0 -88 57 -162 113 -16 12 -35 21 -43 20 -7 0 -11 1 -8
4 6 7 -19 33 -32 33 -6 0 -12 7 -16 15 -3 8 -12 15 -21 15 -8 0 -15 5 -15 10
0 6 -8 14 -17 17 -17 7 -41 25 -68 51 -8 6 -18 12 -24 12 -6 0 -11 4 -11 8 0
4 -31 32 -70 61 -39 30 -70 58 -70 64 0 6 -3 8 -6 4 -3 -3 -20 7 -37 23 -47
43 -73 64 -101 85 -14 10 -23 22 -20 27 3 4 0 8 -5 8 -12 0 -35 20 -130 108
-129 121 -209 203 -271 280 -14 17 -30 31 -36 32 -7 0 -14 7 -17 14 -3 8 -20
22 -36 31 -29 14 -31 14 -32 -2z m2086 -1653 c3 -5 1 -10 -4 -10 -6 0 -11 5
-11 10 0 6 2 10 4 10 3 0 8 -4 11 -10z"/>
<path d="M9729 7351 c-36 -36 -88 -87 -116 -113 -28 -26 -48 -49 -45 -52 3 -3
0 -6 -6 -6 -18 0 -112 -92 -105 -103 3 -6 2 -7 -4 -4 -6 4 -49 -31 -96 -76
-96 -91 -170 -156 -247 -217 -17 -14 -43 -35 -58 -48 -15 -12 -32 -26 -37 -30
-27 -19 -91 -67 -100 -75 -5 -4 -44 -33 -85 -63 -41 -30 -83 -61 -92 -69 -10
-8 -18 -12 -18 -9 0 3 -7 -1 -15 -8 -23 -21 -35 -30 -110 -83 -38 -27 -73 -54
-77 -59 -4 -6 -8 -8 -8 -3 0 4 -42 -22 -94 -58 -52 -36 -99 -65 -105 -65 -6 0
-11 -4 -11 -9 0 -5 -12 -15 -27 -22 -16 -8 -68 -40 -116 -72 -48 -31 -90 -57
-93 -57 -3 0 -19 -9 -35 -21 -16 -11 -29 -18 -29 -14 0 3 -10 -3 -22 -15 -12
-11 -27 -20 -34 -20 -6 0 -17 -7 -24 -15 -7 -9 -15 -13 -18 -11 -3 3 -17 -3
-32 -14 -16 -11 -33 -20 -39 -20 -6 0 -11 -5 -11 -11 0 -5 -4 -7 -10 -4 -5 3
-10 1 -10 -4 0 -6 -6 -11 -14 -11 -7 0 -34 -11 -60 -25 -26 -14 -54 -25 -62
-25 -7 0 -14 -4 -14 -8 0 -5 -33 -19 -74 -32 l-74 -23 9 -31 c5 -17 17 -65 25
-106 9 -41 18 -84 21 -95 2 -11 5 -25 7 -32 4 -22 12 -23 57 -10 24 8 49 15
54 16 6 2 20 7 33 12 13 5 27 9 32 9 10 0 91 27 130 43 14 5 31 11 38 13 8 1
21 6 30 10 9 4 22 8 27 10 6 2 30 10 55 19 63 22 64 23 70 22 3 0 16 6 30 13
14 8 30 15 36 16 6 1 29 10 50 19 22 9 49 21 62 26 12 5 32 13 45 19 12 5 50
21 84 35 184 75 445 203 438 215 -3 5 0 7 9 4 12 -5 168 68 186 86 3 3 32 20
65 37 33 18 59 37 57 43 -1 7 2 8 8 5 11 -7 202 101 208 117 2 4 8 6 13 2 5
-3 9 -1 9 3 0 5 17 17 38 28 20 11 39 22 42 25 3 4 23 17 45 30 22 13 46 30
52 36 7 7 28 22 48 34 19 12 35 26 35 31 0 5 3 8 8 7 6 -2 60 29 72 42 3 3 22
18 43 33 62 47 78 67 66 88 -7 13 -6 19 1 19 6 0 8 5 4 11 -4 7 -8 71 -10 143
-2 72 -4 131 -4 131 -1 0 -2 41 -3 90 -1 50 -6 95 -10 102 -4 6 -3 14 2 18 6
3 8 11 5 19 -3 7 -6 61 -7 121 -2 60 -7 109 -12 110 -6 1 -40 -28 -76 -64z
m-284 -921 c3 -5 1 -10 -4 -10 -6 0 -11 5 -11 10 0 6 2 10 4 10 3 0 8 -4 11
-10z m-522 -355 c-3 -9 -8 -14 -10 -11 -3 3 -2 9 2 15 9 16 15 13 8 -4z"/>
<path d="M4895 6464 c-68 -45 -295 -159 -335 -169 -3 0 -15 -6 -27 -13 -13 -7
-23 -10 -23 -7 0 3 -11 -2 -24 -11 -14 -8 -26 -15 -28 -14 -2 1 -16 -4 -33
-10 -16 -6 -31 -11 -33 -10 -2 1 -14 -6 -28 -15 -14 -9 -28 -14 -31 -11 -4 3
-11 2 -17 -3 -9 -7 -81 -34 -96 -36 -3 0 -9 -3 -15 -6 -5 -4 -56 -21 -112 -39
-57 -18 -103 -37 -103 -42 0 -5 -4 -7 -9 -4 -4 3 -44 -6 -87 -20 -43 -14 -90
-27 -104 -30 -14 -3 -27 -9 -28 -15 -2 -5 -7 -7 -11 -4 -4 2 -25 -1 -47 -7
-21 -7 -42 -13 -46 -14 -5 -1 -9 -2 -10 -4 -4 -2 -26 -8 -63 -15 -16 -3 -41
-10 -55 -15 -21 -7 -129 -32 -196 -45 -10 -2 -19 -4 -19 -5 0 -1 -27 -3 -60
-5 l-59 -2 -13 -49 c-21 -85 -37 -394 -19 -394 7 0 6 -3 -2 -8 -22 -15 -5
-1071 23 -1457 4 -49 8 -108 10 -130 1 -22 4 -41 5 -42 1 -2 4 -21 5 -43 1
-22 3 -41 4 -42 2 -2 4 -25 6 -53 2 -27 7 -72 10 -100 4 -27 8 -61 10 -75 2
-14 6 -46 10 -72 l7 -47 -50 3 c-58 4 -59 4 -98 -48 -16 -22 -39 -51 -51 -64
-13 -14 -23 -31 -23 -38 0 -8 -4 -14 -9 -14 -5 0 -26 -24 -47 -52 -20 -29 -41
-54 -46 -56 -4 -2 -8 -10 -8 -18 0 -9 -4 -12 -10 -9 -5 3 -10 1 -10 -5 0 -12
-58 -94 -97 -136 -12 -13 -19 -24 -16 -24 4 0 -2 -8 -13 -18 -10 -10 -28 -31
-39 -46 -11 -16 -24 -34 -30 -40 -5 -7 -14 -19 -20 -28 -58 -92 -234 -298
-255 -298 -5 0 -10 -7 -10 -15 0 -8 -5 -15 -10 -15 -11 0 -100 -89 -100 -101
0 -7 18 -16 34 -17 5 0 12 -4 15 -9 8 -11 285 -150 287 -143 0 3 8 -1 17 -9
10 -7 17 -10 17 -6 0 4 6 3 13 -2 6 -6 43 -20 80 -33 66 -21 69 -21 82 -4 8
11 15 22 15 27 0 4 7 7 16 7 8 0 12 5 9 10 -3 6 -1 10 4 10 6 0 11 7 11 15 0
9 7 18 15 21 8 4 15 10 15 14 0 8 49 96 89 160 8 14 16 30 17 35 1 6 16 42 34
80 18 39 38 84 45 100 7 17 19 46 28 65 8 19 22 55 30 80 9 25 22 61 31 81 8
20 12 39 9 43 -4 3 -1 6 5 6 7 0 12 4 12 9 0 5 5 22 12 38 6 15 13 36 15 46 2
11 10 28 18 40 8 12 15 29 15 38 0 9 6 22 14 28 11 9 15 6 21 -16 3 -15 15
-46 26 -70 10 -23 19 -48 19 -56 0 -7 3 -17 8 -21 4 -4 8 -11 8 -14 6 -28 18
-52 26 -52 5 0 7 -4 4 -9 -5 -8 24 -89 59 -166 7 -16 17 -42 20 -57 4 -16 10
-28 14 -28 4 0 8 -6 8 -13 0 -16 84 -210 95 -217 4 -3 9 -15 11 -25 1 -11 6
-25 9 -31 8 -11 73 -133 94 -174 7 -14 21 -34 31 -46 10 -11 19 -26 21 -33 1
-7 9 -20 17 -28 9 -8 20 -24 26 -36 13 -24 22 -35 67 -82 17 -20 32 -37 32
-40 0 -7 79 -92 208 -224 61 -63 112 -116 112 -117 0 -9 174 -178 182 -176 5
1 7 -1 4 -6 -3 -5 8 -22 25 -38 66 -63 78 -74 83 -74 2 0 22 -16 44 -36 22
-20 43 -34 45 -32 3 1 15 -9 27 -24 12 -16 28 -28 36 -28 8 0 14 -4 14 -8 0
-10 56 -43 64 -37 3 3 4 2 1 -2 -8 -10 67 -58 98 -62 4 0 21 -8 39 -17 52 -27
146 -2 234 63 17 13 35 23 40 23 4 0 17 9 29 20 11 11 38 34 60 50 42 32 97
78 173 147 26 24 51 43 55 43 5 0 5 5 2 10 -3 6 -2 10 3 10 16 0 192 181 186
191 -3 5 -2 8 3 7 4 -2 19 5 33 15 13 9 20 17 15 17 -5 0 -1 6 10 13 12 9 15
19 10 28 -5 8 -5 11 0 7 11 -10 45 10 45 26 0 7 11 19 25 26 14 7 23 16 20 18
-3 3 9 18 25 34 16 15 28 28 25 28 -4 0 17 28 50 64 19 20 60 73 75 95 8 13
37 52 63 89 26 36 45 72 42 79 -2 8 0 11 5 8 6 -3 13 2 17 12 4 10 13 23 21
29 9 7 12 16 7 24 -5 8 -4 11 3 6 6 -3 14 3 17 16 4 12 22 44 39 72 18 28 40
70 50 94 11 23 23 42 28 42 5 0 7 4 3 9 -3 5 -1 12 4 15 4 3 11 19 15 36 3 18
10 29 16 25 6 -4 10 -3 9 2 -4 16 14 68 29 86 8 9 11 17 7 17 -5 0 -4 5 3 12
7 7 12 20 12 30 0 10 5 18 12 18 6 0 8 3 5 7 -4 3 -3 11 2 17 11 14 36 88 33
99 -1 4 3 7 8 7 6 0 10 7 10 15 0 9 7 30 16 46 8 17 17 39 19 48 2 9 11 35 21
57 9 21 18 44 19 51 2 6 9 29 16 50 7 21 12 41 11 46 -1 4 2 7 6 7 5 0 14 -16
22 -35 7 -19 18 -31 23 -28 6 3 7 1 3 -5 -4 -7 -4 -18 1 -24 4 -7 8 -15 9 -18
0 -3 3 -12 6 -20 4 -8 9 -24 14 -35 4 -11 8 -22 8 -25 1 -6 14 -39 56 -145 17
-44 33 -87 35 -95 6 -29 86 -197 162 -341 12 -23 27 -45 33 -49 6 -4 12 -11
12 -16 2 -31 95 -143 116 -139 9 2 17 4 17 5 0 1 10 3 23 6 13 2 33 9 45 16
12 7 29 13 38 15 9 1 47 17 85 35 38 18 71 33 74 34 3 1 15 5 28 9 12 4 22 12
22 18 0 6 3 7 7 4 3 -4 11 -3 17 2 6 4 43 25 81 46 39 21 72 39 74 41 10 9
-112 144 -129 144 -5 0 -10 4 -10 9 0 5 -37 47 -82 94 -46 47 -103 109 -128
137 -25 29 -50 57 -55 63 -19 23 -60 74 -85 107 -14 18 -31 39 -37 46 -7 7
-13 17 -13 23 0 6 -9 16 -20 23 -11 7 -20 21 -20 31 0 10 -7 20 -15 23 -8 4
-15 11 -15 16 0 6 -16 32 -35 58 -19 26 -35 52 -35 58 0 6 -3 12 -7 14 -5 2
-19 24 -32 50 -13 26 -28 45 -34 41 -6 -3 -7 -1 -3 6 4 6 -3 28 -16 49 -12 20
-22 40 -21 43 1 3 -9 12 -22 19 -14 7 -25 17 -25 22 0 5 -19 8 -42 6 l-43 -3
0 73 c0 39 3 72 6 72 4 0 7 10 6 23 -1 23 11 192 19 262 4 45 13 155 19 259 2
37 6 71 9 73 3 3 1 14 -4 24 -6 10 -6 20 -2 23 5 3 10 27 11 53 7 114 10 158
11 158 7 0 6 36 -1 41 -6 3 -5 11 2 20 9 11 9 14 0 14 -8 0 -9 6 -4 18 10 20
10 213 0 228 -3 6 -2 16 2 23 5 7 5 29 1 49 -3 21 -3 49 1 64 4 15 5 29 2 31
-2 3 -6 101 -8 219 -6 322 -16 573 -28 712 -2 14 -11 20 -37 22 -107 10 -137
13 -160 18 -14 3 -43 7 -65 10 -60 9 -143 24 -165 31 -20 6 -61 15 -90 20 -8
1 -22 5 -30 8 -8 4 -26 8 -40 11 -14 2 -74 18 -135 36 -121 34 -114 32 -200
57 -33 9 -63 21 -66 26 -3 5 -10 8 -15 8 -19 -2 -77 18 -225 78 -99 40 -122
48 -134 51 -5 1 -17 7 -25 14 -15 13 -45 26 -56 25 -4 0 -10 3 -13 8 -3 5 -17
14 -31 21 -90 44 -190 110 -190 124 0 5 -4 7 -9 4 -5 -4 -11 -3 -13 1 -2 5
-17 20 -33 35 l-31 28 -69 -46z m151 -174 c9 0 117 -53 124 -61 3 -3 26 -13
53 -23 26 -10 47 -22 47 -27 0 -6 4 -8 9 -4 6 3 25 -3 43 -13 18 -10 51 -24
73 -31 22 -7 58 -21 80 -31 44 -19 75 -32 90 -36 6 -1 51 -16 100 -33 50 -17
98 -31 108 -31 9 0 17 -3 17 -8 0 -4 21 -13 48 -19 26 -7 86 -23 133 -36 47
-13 95 -23 107 -22 12 1 19 -1 17 -5 -2 -3 58 -21 133 -40 75 -19 142 -35 147
-37 6 -1 26 -5 45 -9 19 -3 41 -11 48 -16 8 -8 12 -7 12 3 0 9 3 10 8 4 10
-15 109 -38 124 -29 10 6 11 5 1 -8 -7 -8 -11 -17 -9 -19 8 -8 24 -493 26
-747 0 -80 3 -101 13 -96 9 6 9 4 1 -7 -7 -9 -12 -76 -12 -189 -1 -226 -13
-522 -28 -715 -4 -55 -8 -117 -8 -137 -1 -21 -3 -38 -6 -38 -3 0 -5 -19 -5
-42 0 -24 -2 -47 -4 -53 -3 -5 -6 -16 -6 -25 -4 -40 -18 -147 -21 -165 -3 -11
-7 -36 -9 -55 -3 -19 -12 -69 -20 -110 -8 -41 -18 -88 -21 -105 -2 -16 -9 -45
-14 -64 -5 -19 -7 -38 -4 -43 3 -4 0 -8 -7 -8 -8 0 -7 -5 2 -17 8 -9 9 -14 3
-10 -7 4 -15 -14 -23 -48 -7 -31 -17 -53 -22 -50 -5 3 -6 -1 -3 -9 6 -16 -42
-191 -59 -213 -5 -7 -6 -17 -3 -22 4 -5 2 -12 -3 -15 -5 -3 -17 -32 -27 -64
-9 -31 -21 -62 -25 -67 -4 -6 -17 -36 -29 -68 -42 -112 -195 -398 -225 -419
-7 -5 -7 -8 0 -8 6 0 1 -7 -9 -15 -11 -8 -16 -15 -12 -15 5 0 3 -7 -4 -15 -7
-8 -16 -12 -21 -9 -5 3 -6 -1 -4 -9 3 -7 -6 -26 -19 -42 -14 -16 -24 -31 -21
-33 2 -2 -4 -12 -13 -21 -31 -33 -70 -81 -66 -81 4 0 -30 -42 -58 -72 -10 -10
-18 -20 -18 -23 0 -3 -21 -28 -47 -55 -163 -168 -207 -212 -271 -269 -70 -62
-81 -71 -143 -121 -18 -14 -42 -35 -55 -48 -13 -12 -28 -22 -34 -22 -6 0 -21
-11 -34 -25 -13 -14 -28 -25 -33 -25 -5 0 -20 -11 -33 -25 -13 -14 -25 -23
-28 -21 -2 3 -16 -6 -30 -20 -15 -13 -30 -24 -35 -24 -10 0 -69 -41 -79 -55
-12 -16 -62 -11 -76 7 -7 10 -18 16 -23 13 -5 -4 -9 -2 -9 3 0 5 -22 21 -50
34 -27 14 -47 28 -43 31 3 4 0 7 -8 7 -17 0 -132 75 -165 108 -7 6 -16 12 -21
12 -5 0 -15 9 -23 20 -8 11 -20 20 -27 20 -7 0 -13 5 -13 10 0 6 -4 10 -10 10
-9 0 -36 22 -101 82 -16 15 -29 25 -29 22 0 -3 -12 9 -26 26 -15 17 -33 29
-40 26 -8 -3 -13 -2 -13 2 3 20 -3 31 -21 37 -11 4 -18 10 -16 14 3 4 -9 16
-25 26 -16 11 -29 23 -29 27 0 5 -27 35 -60 69 -33 33 -60 64 -60 67 0 4 -23
32 -50 62 -27 30 -50 58 -50 62 0 5 -7 16 -15 25 -32 36 -95 123 -90 123 3 0
0 7 -7 15 -7 9 -18 21 -23 28 -6 7 -19 29 -30 50 -11 20 -23 37 -28 37 -4 0
-6 4 -3 9 3 5 -1 14 -9 21 -8 7 -12 16 -9 21 3 5 1 9 -3 9 -9 0 -48 67 -48 82
0 5 -6 12 -13 17 -8 5 -14 11 -14 14 0 19 -12 47 -19 47 -5 0 -8 3 -7 8 1 4
-15 42 -34 84 -20 42 -39 87 -43 100 -4 13 -11 28 -15 33 -4 6 -13 28 -20 50
-7 22 -17 45 -22 52 -5 6 -11 24 -14 40 -3 15 -12 38 -20 51 -8 12 -12 22 -9
22 2 0 0 12 -6 28 -6 15 -12 34 -14 42 -2 8 -13 44 -24 80 -12 36 -21 73 -21
83 0 10 -4 16 -9 13 -5 -3 -8 0 -7 7 2 22 -26 152 -37 165 -5 6 -7 12 -5 12 3
0 -4 42 -14 93 -23 111 -44 226 -52 293 -2 11 -6 26 -10 32 -3 6 -2 14 4 17 7
5 8 11 1 19 -5 6 -12 38 -15 71 -3 33 -8 83 -11 110 -22 196 -36 398 -40 605
-2 80 -5 147 -6 150 -1 3 -1 9 0 13 2 13 3 251 1 262 -1 6 -1 15 0 20 1 6 4
76 6 156 2 80 6 160 8 177 2 18 -1 32 -7 32 -6 0 -6 4 0 13 9 11 15 98 16 224
1 23 3 40 6 38 3 -2 6 22 5 53 0 95 4 109 39 117 39 9 78 16 95 17 6 1 12 4
12 8 0 3 10 6 23 7 23 1 70 10 99 19 9 3 27 7 40 10 13 3 28 6 33 8 17 5 56
14 170 41 61 15 115 28 120 29 6 2 13 4 18 5 4 0 23 7 42 15 19 8 35 13 35 11
0 -2 15 1 33 6 17 6 43 12 57 15 14 3 26 9 28 14 2 5 10 6 18 3 8 -3 21 0 29
7 8 7 15 10 15 7 0 -3 13 -1 30 4 16 6 28 14 26 17 -2 4 6 8 17 8 43 3 76 8
72 13 -3 2 25 15 62 27 38 13 76 28 85 34 10 5 22 10 28 10 5 0 38 13 72 29
35 16 77 35 95 42 17 7 30 16 28 19 -2 3 6 7 17 7 12 1 24 7 28 14 4 6 13 8
19 5 6 -4 11 -3 11 2 0 5 14 15 30 22 17 7 30 17 30 22 0 5 4 7 8 4 5 -3 18 4
30 14 12 11 25 20 29 20 4 0 19 9 32 19 24 19 25 19 63 -5 21 -13 41 -24 44
-24z m964 -294 c0 -3 -4 -8 -10 -11 -5 -3 -10 -1 -10 4 0 6 5 11 10 11 6 0 10
-2 10 -4z"/>
<path d="M4929 6247 c-97 -55 -120 -68 -165 -92 -114 -61 -437 -194 -508 -210
-6 -1 -20 -5 -31 -9 -44 -17 -206 -63 -280 -81 -11 -3 -56 -14 -100 -25 -44
-11 -89 -22 -100 -24 -11 -3 -45 -10 -75 -16 -30 -7 -71 -16 -90 -20 -19 -4
-71 -16 -115 -25 -44 -9 -83 -20 -87 -23 -13 -13 -32 -550 -32 -912 0 -229 10
-585 18 -625 2 -11 7 -69 11 -130 4 -60 8 -112 10 -115 2 -3 6 -36 10 -75 7
-77 10 -101 19 -160 13 -83 18 -113 38 -220 11 -60 21 -119 23 -130 1 -11 5
-27 8 -35 3 -8 8 -28 11 -45 13 -82 105 -380 168 -540 45 -117 154 -343 209
-434 22 -34 39 -67 39 -72 0 -5 4 -9 8 -9 5 0 15 -12 23 -27 12 -23 109 -159
152 -213 21 -28 112 -134 127 -151 8 -9 47 -51 85 -94 76 -84 307 -318 321
-324 8 -3 28 -20 75 -64 10 -9 23 -17 29 -17 5 0 13 -6 17 -13 4 -7 37 -32 73
-55 36 -23 70 -45 75 -50 6 -4 24 -14 42 -21 29 -12 36 -11 67 9 20 12 41 18
47 14 8 -4 9 -3 5 4 -4 7 11 22 36 38 24 15 45 31 46 35 2 5 7 9 12 9 8 0 25
14 90 70 15 14 47 41 70 60 24 19 56 50 73 67 16 18 35 30 41 26 6 -3 8 -3 5
1 -8 9 154 176 170 176 7 0 10 4 7 8 -2 4 19 33 47 63 29 30 70 78 92 105 22
27 43 51 46 54 3 3 48 61 100 130 159 210 269 402 357 627 22 54 43 107 47
118 5 11 9 22 10 25 3 10 55 186 64 215 8 25 24 90 58 235 3 14 7 34 8 45 2
11 13 76 25 145 11 69 22 141 24 160 2 19 9 82 15 140 28 269 36 488 35 955
-1 418 -12 970 -19 995 -3 9 -31 23 -68 33 -69 19 -332 87 -359 92 -111 23
-453 128 -472 146 -6 5 -17 9 -26 9 -15 0 -83 25 -175 65 -16 7 -82 34 -145
60 -63 27 -158 69 -211 95 l-96 46 -34 -19z"/>
<path d="M9752 6181 c-29 -15 -58 -33 -64 -39 -7 -7 -20 -12 -30 -12 -10 0
-18 -5 -18 -11 0 -5 -4 -8 -9 -4 -6 3 -14 -3 -20 -12 -6 -10 -11 -15 -11 -11
0 8 -113 -55 -140 -77 -8 -7 -26 -16 -40 -20 -14 -4 -27 -11 -30 -15 -8 -10
-243 -123 -257 -123 -7 0 -13 -4 -13 -9 0 -4 -7 -8 -15 -8 -8 0 -15 -4 -15
-10 0 -5 -7 -10 -16 -10 -8 0 -36 -9 -62 -21 -26 -12 -60 -27 -77 -34 -16 -7
-55 -24 -85 -38 -30 -13 -77 -33 -105 -43 -27 -10 -52 -20 -55 -23 -3 -4 -14
-8 -25 -9 -10 -2 -37 -12 -60 -22 -75 -33 -121 -51 -135 -55 -38 -8 -60 -18
-60 -26 0 -5 -3 -8 -7 -7 -12 3 -77 -13 -88 -22 -5 -4 -26 -11 -45 -15 -19 -4
-39 -10 -45 -14 -5 -4 -41 -17 -80 -30 -38 -12 -79 -26 -90 -31 -22 -8 -101
-32 -123 -36 -8 -1 -21 -6 -30 -10 -9 -4 -21 -8 -27 -10 -31 -10 -163 -45
-180 -49 -11 -2 -20 -4 -20 -5 0 -1 -11 -3 -25 -6 -50 -9 -49 -6 -44 -126 3
-62 7 -135 9 -163 2 -27 4 -63 4 -79 l1 -28 93 7 c202 15 302 26 327 35 3 1 8
2 12 1 8 -1 189 26 228 34 14 3 39 8 55 10 45 8 187 34 215 40 14 3 41 8 60
11 19 3 39 8 43 11 4 2 20 6 35 8 30 5 62 11 107 22 17 4 32 7 35 8 55 12 77
18 85 23 6 4 21 7 35 8 14 1 25 2 25 4 0 2 34 8 63 12 6 1 12 5 12 10 0 5 4 7
9 4 7 -5 68 11 390 100 29 8 59 18 65 21 6 4 20 9 31 10 24 4 107 34 117 42 3
3 9 20 12 36 3 17 10 48 15 70 5 22 8 41 6 44 -3 2 0 10 6 17 6 8 9 20 6 28
-3 8 -2 16 3 18 5 2 11 21 14 43 2 22 5 40 6 40 1 0 3 9 5 20 2 11 7 36 11 55
3 19 8 44 10 55 1 11 5 31 9 45 6 27 12 68 21 140 3 25 7 61 10 80 7 59 16
180 12 179 -2 0 -27 -13 -56 -28z m-1102 -945 c0 -3 -4 -8 -10 -11 -5 -3 -10
-1 -10 4 0 6 5 11 10 11 6 0 10 -2 10 -4z"/>
<path d="M115 6183 c4 -10 8 -34 10 -53 2 -19 6 -46 9 -59 3 -13 8 -49 12 -80
3 -31 8 -59 11 -63 2 -5 6 -27 9 -50 8 -68 19 -141 28 -185 3 -15 9 -48 12
-73 3 -25 8 -54 10 -65 2 -11 6 -38 9 -60 4 -36 15 -99 20 -117 2 -5 3 -17 4
-27 1 -14 15 -24 49 -35 26 -9 50 -16 54 -16 4 -1 23 -7 43 -16 19 -8 35 -11
35 -8 0 4 6 2 13 -4 14 -12 127 -43 127 -35 0 3 6 1 13 -4 13 -11 53 -22 102
-29 17 -3 39 -9 50 -14 22 -11 95 -29 135 -35 14 -1 25 -4 25 -5 0 -2 9 -4 20
-6 11 -1 31 -6 45 -9 65 -17 113 -24 123 -18 6 3 7 1 3 -5 -5 -8 1 -12 16 -13
13 0 30 -2 38 -5 50 -13 113 -23 120 -19 5 3 10 1 12 -5 1 -5 26 -11 54 -14
29 -2 56 -6 62 -9 5 -4 24 -9 43 -12 19 -2 54 -9 79 -14 57 -12 118 -22 150
-25 14 -2 34 -6 45 -9 11 -3 47 -8 79 -12 32 -3 62 -7 65 -9 3 -2 33 -7 66
-10 33 -3 71 -8 85 -11 31 -5 109 -13 223 -21 l87 -6 1 53 c3 128 7 208 14
218 3 6 3 11 -2 11 -4 0 -9 12 -9 28 -3 58 -11 74 -42 88 -18 7 -32 10 -32 7
0 -3 -6 0 -14 6 -7 6 -25 12 -40 13 -14 1 -26 5 -26 8 0 6 -102 35 -109 31 -2
-2 -7 2 -10 7 -4 6 -18 13 -31 15 -14 2 -32 7 -40 10 -31 13 -264 88 -279 90
-9 1 -20 5 -26 8 -5 4 -28 12 -50 18 -22 7 -49 16 -60 21 -21 9 -173 61 -190
65 -5 1 -23 7 -40 14 -16 6 -43 16 -60 22 -33 12 -46 17 -120 49 -27 12 -57
23 -65 25 -16 3 -83 32 -165 71 -27 14 -55 24 -62 24 -6 0 -13 5 -15 10 -2 6
-13 12 -26 13 -12 0 -22 5 -22 9 0 4 -5 8 -12 8 -11 0 -218 100 -228 110 -3 3
-30 18 -60 34 -30 16 -57 32 -60 35 -13 15 -128 70 -133 64 -4 -3 -7 0 -8 8 0
14 -143 89 -168 89 -9 0 -11 -6 -6 -17z m135 -349 c0 -8 -19 -13 -24 -6 -3 5
1 9 9 9 8 0 15 -2 15 -3z m120 -478 c0 -2 -7 -7 -16 -10 -8 -3 -12 -2 -9 4 6
10 25 14 25 6z m1594 -324 c3 -5 -1 -9 -9 -9 -8 0 -12 4 -9 9 3 4 7 8 9 8 2 0
6 -4 9 -8z"/>
<path d="M365 4978 c4 -18 14 -45 21 -60 8 -15 14 -29 13 -30 -1 -2 6 -28 15
-58 20 -63 23 -71 26 -85 2 -9 16 -49 36 -100 4 -11 8 -23 9 -27 2 -5 3 -9 5
-10 1 -2 3 -10 5 -19 8 -43 61 -195 70 -201 5 -4 7 -8 3 -8 -4 0 -2 -13 3 -30
l11 -29 321 4 c310 4 426 8 587 21 41 3 93 6 115 7 22 1 43 6 47 12 5 6 8 5 8
-3 0 -7 4 -11 9 -8 4 3 34 8 65 11 143 13 221 21 276 29 93 13 124 18 143 22
12 2 36 7 52 9 17 3 37 8 45 10 8 2 32 6 54 10 53 7 58 12 52 48 -2 18 -7 52
-11 77 -3 25 -8 54 -10 65 -2 11 -6 43 -10 71 -9 66 -15 74 -56 79 -19 2 -52
6 -74 10 -22 3 -71 8 -110 10 -215 14 -358 22 -525 31 -113 5 -189 11 -260 19
-25 2 -65 7 -90 10 -25 3 -56 7 -70 10 -14 3 -46 7 -71 10 -25 2 -52 7 -60 9
-17 6 -58 14 -119 22 -45 5 -62 8 -111 18 -14 3 -39 8 -55 10 -16 2 -36 6 -44
10 -8 3 -33 8 -55 11 -53 6 -74 10 -174 29 -46 9 -85 16 -88 16 -2 0 -1 -15 2
-32z"/>
<path d="M9503 5000 c-2 -3 -13 -6 -24 -6 -10 -1 -20 -3 -21 -4 -2 -1 -12 -4
-23 -5 -34 -4 -117 -18 -175 -29 -8 -2 -26 -6 -40 -9 -14 -4 -41 -9 -60 -12
-129 -20 -145 -22 -145 -26 0 -1 -9 -3 -20 -4 -23 -3 -98 -14 -135 -20 -14 -2
-43 -7 -65 -10 -22 -2 -56 -7 -75 -10 -58 -9 -215 -22 -365 -30 -38 -2 -117
-6 -175 -9 -108 -6 -194 -12 -315 -22 -38 -3 -91 -7 -116 -9 -26 -1 -50 -4
-55 -7 -5 -2 -22 -5 -38 -6 -35 -2 -35 -3 -41 -31 -3 -11 -7 -31 -10 -43 -7
-33 -27 -138 -31 -168 -7 -45 -9 -55 -17 -67 -4 -7 0 -14 10 -17 34 -10 138
-29 168 -31 17 -1 39 -5 50 -8 26 -9 88 -18 150 -22 28 -2 50 -4 50 -5 0 -6
155 -23 335 -36 36 -3 85 -6 110 -8 165 -13 374 -20 624 -20 l288 -1 23 62
c13 34 21 64 18 67 -4 3 -1 6 5 6 7 0 12 8 12 18 0 9 7 30 15 46 8 15 15 32
15 36 0 4 8 25 17 46 9 22 17 41 18 44 1 3 4 12 8 20 5 14 29 88 32 100 1 3 4
12 8 20 12 32 27 88 40 150 l14 66 -29 -1 c-17 0 -32 -2 -35 -5z m-302 -377
c13 -16 12 -17 -3 -4 -10 7 -18 15 -18 17 0 8 8 3 21 -13z m-1187 -31 c3 -5
-1 -9 -9 -9 -8 0 -12 4 -9 9 3 4 7 8 9 8 2 0 6 -4 9 -8z"/>
<path d="M7502 4342 c-6 -15 -26 -67 -45 -117 -19 -49 -38 -99 -42 -110 -5
-11 -9 -23 -9 -27 -1 -3 -4 -10 -8 -14 -5 -4 -8 -11 -8 -15 0 -7 33 -22 55
-25 6 0 17 -4 25 -7 44 -17 97 -31 108 -29 6 2 12 -1 12 -6 0 -5 6 -9 13 -9 6
0 38 -8 70 -17 32 -9 62 -14 67 -11 6 3 10 2 10 -3 0 -4 24 -14 53 -22 28 -8
57 -15 62 -17 83 -23 122 -33 139 -36 12 -1 26 -5 31 -9 6 -3 26 -9 45 -12 19
-3 60 -13 90 -22 30 -8 64 -17 75 -18 11 -2 20 -4 20 -5 0 -2 8 -4 17 -6 10
-2 95 -22 190 -46 95 -23 183 -42 196 -42 12 -1 22 -5 22 -9 0 -4 3 -7 8 -6 7
2 90 -13 137 -26 6 -1 37 -8 69 -15 52 -12 60 -11 68 3 5 9 20 27 33 40 36 37
146 207 139 217 -3 5 -1 9 4 9 16 0 61 110 65 160 2 21 -3 25 -28 26 -53 3
-199 14 -240 19 -22 2 -66 6 -97 9 -31 2 -61 7 -67 11 -6 3 -11 1 -11 -6 0 -8
-4 -8 -12 -1 -7 5 -38 12 -68 16 -84 9 -145 18 -149 22 -2 2 -11 -2 -19 -9
-13 -9 -14 -9 -8 1 4 7 2 12 -6 13 -7 0 -20 2 -28 4 -8 1 -51 8 -95 15 -44 7
-89 14 -100 16 -11 2 -31 6 -45 9 -14 3 -36 7 -50 10 -14 3 -40 8 -59 11 -18
3 -43 8 -55 11 -11 2 -31 6 -43 8 -12 2 -36 6 -55 11 -18 4 -43 8 -55 10 -12
1 -34 5 -50 8 -68 15 -117 24 -168 30 -22 3 -51 8 -65 11 -14 3 -38 8 -55 10
-16 3 -39 7 -50 9 -15 3 -24 -3 -33 -22z"/>
<path d="M2302 4248 c-9 -4 -31 -7 -47 -7 -17 -1 -37 -7 -44 -13 -11 -11 -12
-10 -6 2 7 12 6 13 -6 4 -8 -5 -32 -12 -54 -13 -22 -2 -44 -6 -50 -9 -5 -3
-16 -7 -25 -7 -22 -2 -108 -16 -133 -21 -24 -5 -43 -9 -127 -25 -99 -18 -105
-20 -125 -26 -11 -4 -31 -7 -45 -9 -35 -3 -91 -12 -180 -29 -14 -3 -42 -7 -64
-10 -21 -3 -50 -7 -65 -9 -63 -11 -200 -28 -254 -32 -32 -2 -71 -6 -85 -9 -14
-2 -67 -7 -116 -11 -50 -4 -104 -8 -121 -9 -16 -2 -38 -3 -48 -4 -10 -1 -15
-6 -12 -12 4 -5 8 -20 10 -32 3 -26 32 -100 56 -142 9 -16 25 -46 35 -65 11
-19 26 -42 35 -50 9 -8 19 -25 23 -37 4 -13 12 -23 17 -23 5 0 9 -7 9 -15 0
-8 4 -15 8 -15 5 0 21 -18 38 -39 16 -22 32 -37 37 -34 4 2 24 7 45 9 20 3 39
9 40 14 2 6 8 8 13 4 5 -3 24 -1 42 5 17 6 48 13 67 16 19 3 50 10 68 15 17 4
32 6 32 4 0 -3 8 0 19 5 10 6 33 13 52 16 19 3 81 17 139 32 58 14 116 27 130
29 14 3 36 9 50 13 14 5 48 15 75 21 28 7 59 14 70 17 11 3 32 7 48 10 15 3
27 10 27 15 0 5 4 7 9 3 5 -3 54 6 108 21 54 14 103 27 108 29 6 1 18 5 27 9
18 8 25 10 85 21 24 4 41 10 39 14 -2 3 6 7 17 8 23 2 60 10 65 13 1 2 5 3 10
4 4 1 12 4 17 7 6 3 17 5 25 4 8 0 17 3 20 7 5 6 30 13 92 25 17 3 25 10 21
19 -3 8 -10 11 -16 7 -6 -3 -7 -1 -3 6 7 10 -9 71 -24 96 -4 6 -12 29 -20 53
-7 23 -17 42 -22 42 -4 0 -7 3 -6 8 2 4 -3 26 -11 49 -14 42 -15 42 -58 40
-24 -1 -51 -5 -61 -9z"/>
<path d="M7302 3935 c-25 -25 -43 -45 -38 -45 4 0 -5 -11 -20 -25 -15 -14 -24
-31 -21 -39 4 -10 1 -13 -9 -9 -29 11 -13 -16 32 -54 25 -21 58 -49 74 -63 15
-14 36 -32 46 -40 112 -91 140 -112 170 -126 19 -9 34 -20 34 -25 0 -5 5 -9
11 -9 7 0 34 -13 61 -30 26 -16 55 -30 62 -30 8 0 16 -3 18 -7 3 -8 192 -103
203 -103 6 0 77 -31 128 -55 18 -9 27 -10 27 -2 0 6 6 4 13 -5 6 -8 35 -23 62
-33 28 -9 59 -21 70 -25 32 -13 178 -59 205 -64 14 -3 50 -12 80 -20 30 -9 56
-16 57 -16 2 0 157 183 189 222 40 51 85 128 79 137 -3 6 -26 16 -51 22 -24 6
-44 14 -44 18 0 4 -8 7 -17 8 -10 1 -58 13 -107 27 -49 15 -103 29 -120 31
-17 3 -40 9 -51 14 -19 9 -110 34 -185 51 -19 4 -47 12 -62 18 -16 7 -28 9
-28 6 0 -4 -6 -2 -13 4 -7 6 -24 13 -37 15 -14 2 -32 7 -40 10 -28 12 -185 68
-197 70 -7 2 -16 6 -19 10 -4 4 -18 7 -31 7 -12 0 -23 3 -23 8 0 10 -79 34
-91 26 -5 -3 -8 0 -7 7 2 6 -8 15 -22 19 -14 4 -38 13 -55 20 -16 7 -34 14
-40 16 -33 9 -81 30 -87 39 -4 6 -8 6 -8 2 0 -5 -12 -2 -27 6 -54 28 -115 57
-120 57 -2 0 -25 -20 -51 -45z"/>
<path d="M2500 3849 c-30 -15 -63 -28 -72 -28 -10 -1 -18 -5 -18 -11 0 -5 -6
-10 -12 -10 -7 0 -47 -14 -88 -31 -41 -17 -118 -46 -170 -66 -52 -20 -106 -40
-120 -46 -14 -6 -28 -11 -32 -12 -5 -2 -9 -3 -10 -5 -2 -1 -10 -3 -18 -5 -13
-2 -98 -32 -150 -52 -8 -3 -19 -7 -25 -7 -19 -3 -100 -30 -105 -36 -3 -3 -14
-6 -25 -6 -24 -2 -44 -6 -155 -36 -47 -12 -87 -25 -90 -29 -3 -3 -13 -5 -22
-3 -10 1 -18 -1 -18 -6 0 -4 -8 -7 -17 -7 -27 0 -83 -15 -83 -22 0 -4 -8 -7
-17 -8 -31 -2 -75 -14 -97 -25 -12 -6 -23 -11 -26 -11 -9 1 -35 -10 -47 -20
-9 -7 -2 -24 30 -70 23 -34 40 -66 39 -70 -1 -5 2 -6 8 -2 5 3 10 3 10 -2 0
-4 10 -20 23 -35 38 -46 55 -66 100 -121 41 -50 46 -53 82 -50 22 1 55 8 75
15 19 7 39 11 44 10 4 -2 14 3 22 9 8 6 14 8 14 4 0 -4 7 -2 15 5 8 7 15 10
15 7 0 -6 106 30 125 41 6 4 18 8 28 9 16 3 59 19 142 53 11 5 43 19 70 31 28
12 52 23 55 24 31 8 50 18 50 26 0 5 4 8 8 7 16 -5 111 45 105 55 -3 6 -1 7 6
3 12 -8 29 -1 126 54 138 77 273 174 274 198 1 6 4 11 9 10 13 -5 71 45 65 56
-3 6 -3 8 2 4 4 -4 21 4 37 17 16 14 34 25 40 25 16 0 1 47 -25 77 -47 57
-110 123 -116 122 -3 -1 -31 -14 -61 -30z"/>
<path d="M7042 3651 c-16 -14 -42 -34 -56 -45 -14 -10 -23 -23 -19 -29 3 -6 1
-7 -6 -3 -7 5 -19 0 -29 -11 -9 -11 -25 -24 -34 -29 -15 -8 -15 -12 -1 -44 9
-19 15 -38 15 -42 -1 -5 3 -8 8 -8 6 0 10 -5 10 -11 0 -18 77 -119 85 -111 5
4 5 2 1 -5 -4 -7 1 -20 11 -30 10 -10 34 -40 53 -66 19 -25 43 -49 53 -53 10
-3 16 -8 13 -11 -2 -3 6 -16 20 -30 13 -13 24 -28 24 -34 0 -6 5 -7 10 -4 6 3
10 2 10 -3 0 -13 212 -222 404 -397 54 -49 121 -111 148 -137 28 -27 52 -48
55 -48 13 0 133 65 133 72 0 4 6 8 13 8 6 0 24 10 39 23 14 12 39 32 55 44 15
12 82 66 148 120 66 54 133 107 148 118 l28 21 -26 26 c-24 24 -164 88 -192
88 -7 0 -13 5 -13 10 0 6 -7 10 -15 10 -13 0 -223 98 -235 110 -3 3 -27 16
-53 30 -27 14 -57 33 -68 43 -10 10 -19 16 -19 13 0 -10 -100 51 -112 69 -4 5
-8 6 -8 2 0 -5 -12 1 -26 12 -15 11 -30 18 -35 15 -5 -3 -9 1 -9 8 0 7 -19 23
-42 36 -24 12 -54 31 -68 42 -26 21 -79 57 -184 123 -34 21 -63 42 -66 46 -3
3 -35 25 -71 47 l-66 41 -31 -26z"/>
<path d="M2739 3508 c-52 -35 -96 -65 -99 -68 -7 -7 -39 -26 -82 -50 -20 -11
-41 -27 -46 -36 -5 -9 -12 -15 -16 -15 -8 2 -59 -30 -67 -42 -3 -5 -9 -8 -13
-8 -8 2 -57 -30 -76 -49 -8 -8 -22 -16 -30 -18 -8 -2 -17 -7 -20 -10 -6 -9
-40 -30 -60 -39 -8 -3 -28 -16 -45 -27 -16 -12 -52 -33 -80 -46 -27 -14 -52
-28 -55 -31 -3 -4 -48 -28 -100 -54 -52 -26 -97 -50 -100 -54 -3 -3 -9 -6 -15
-6 -5 0 -36 -13 -68 -28 -32 -15 -63 -27 -70 -27 -26 0 -136 -60 -147 -80 -13
-24 -14 -22 71 -81 21 -15 35 -29 32 -33 -4 -3 -1 -6 5 -6 12 0 32 -15 86 -64
17 -16 47 -40 66 -55 19 -14 43 -34 53 -45 9 -10 17 -16 17 -12 0 4 6 2 13 -3
73 -61 169 -117 198 -116 19 0 119 89 119 105 0 6 4 9 8 6 5 -3 18 5 30 17 11
12 54 53 96 91 42 38 110 102 152 142 42 41 81 71 87 67 5 -3 7 -1 4 4 -9 14
151 175 165 167 7 -4 8 -2 4 4 -3 6 32 57 80 114 47 57 94 114 102 128 9 14
19 27 22 30 17 16 69 130 65 142 -3 8 -18 21 -33 30 -15 9 -44 31 -64 50 -48
43 -80 68 -89 68 -3 0 -49 -28 -100 -62z"/>
</g>
</svg>
